HIERARCHY
ROOT Hips
{
     OFFSET 9.81748 96.84850 -16.09740
     CHANNELS 6 Xposition Yposition Zposition Zrotation Xrotation Yrotation
     JOINT Spine
     {
          OFFSET 0.00000 11.89050 -0.00000
          CHANNELS 3 Zrotation Xrotation Yrotation
          JOINT Spine1
          {
               OFFSET 0.00000 25.65740 0.12766
               CHANNELS 3 Zrotation Xrotation Yrotation
               JOINT HEad
               {
                    OFFSET 0.00000 8.73416 0.01134
                    CHANNELS 3 Zrotation Xrotation Yrotation
                    End Site
                    {
                         OFFSET -0.29000 12.77420 2.51395
                    }
               }
               JOINT LeftShoulder1
               {
                    OFFSET 8.99000 -0.36225 -0.22000
                    CHANNELS 3 Zrotation Xrotation Yrotation
                    JOINT LeftArm
                    {
                         OFFSET 10.28270 -0.00338 0.32212
                         CHANNELS 3 Zrotation Xrotation Yrotation
                         JOINT LeftForeArm
                         {
                              OFFSET 32.76690 0.09914 -1.42434
                              CHANNELS 3 Zrotation Xrotation Yrotation
                              JOINT LeftHand
                              {
                                   OFFSET 27.56430 0.08536 1.02216
                                   CHANNELS 3 Zrotation Xrotation Yrotation
                                   End Site
                                   {
                                        OFFSET 16.74430 -0.60000 1.50291
                                   }
                              }
                         }
                    }
               }
               JOINT RightShoulder
               {
                    OFFSET -8.99000 -0.36225 -0.22000
                    CHANNELS 3 Zrotation Xrotation Yrotation
                    JOINT RightArm
                    {
                         OFFSET -10.28270 -0.00338 0.32212
                         CHANNELS 3 Zrotation Xrotation Yrotation
                         JOINT RightForeArm
                         {
                              OFFSET -32.89710 0.09914 -1.42434
                              CHANNELS 3 Zrotation Xrotation Yrotation
                              JOINT RightHand
                              {
                                   OFFSET -27.49210 0.08536 1.02216
                                   CHANNELS 3 Zrotation Xrotation Yrotation
                                   End Site
                                   {
                                        OFFSET -16.63120 -0.60000 1.50291
                                   }
                              }
                         }
                    }
               }
          }
     }
     JOINT LeftUpLeg
     {
          OFFSET 8.94580 -8.66707 0.10165
          CHANNELS 3 Zrotation Xrotation Yrotation
          JOINT LeftLeg
          {
               OFFSET 0.00000 -44.42270 1.37270
               CHANNELS 3 Zrotation Xrotation Yrotation
               JOINT LeftFoot
               {
                    OFFSET -0.25355 -42.09240 -1.46059
                    CHANNELS 3 Zrotation Xrotation Yrotation
                    JOINT LeftToes
                    {
                         OFFSET -0.04000 -4.41509 8.49910
                         CHANNELS 3 Zrotation Xrotation Yrotation
                         End Site
                         {
                              OFFSET 0.08000 -0.04745 9.77979
                         }
                    }
               }
          }
     }
     JOINT RightUpLeg
     {
          OFFSET -8.94580 -8.66707 0.10165
          CHANNELS 3 Zrotation Xrotation Yrotation
          JOINT RightLeg
          {
               OFFSET -0.00000 -44.42270 1.37270
               CHANNELS 3 Zrotation Xrotation Yrotation
               JOINT RightFoot
               {
                    OFFSET 0.25355 -42.09240 -1.46059
                    CHANNELS 3 Zrotation Xrotation Yrotation
                    JOINT RightToes
                    {
                         OFFSET 0.04000 -4.41509 8.49910
                         CHANNELS 3 Zrotation Xrotation Yrotation
                         End Site
                         {
                              OFFSET -0.08000 -0.13745 9.77979
                         }
                    }
               }
          }
     }
}
MOTION
Frames: 7
Frame Time: 0.01667
28.36420 88.00820 -3.77132 -1.17729 -12.84850 5.40833 7.77489 9.20959 -2.39845 -0.99532 20.83970 -1.76252 -7.23867 -0.07497 18.49130 -0.00000 -0.00000 0.00000 -88.70730 -60.83050 -79.65240 -20.90300 39.22050 -83.93190 16.49460 7.62860 -12.14060 14.08260 0.68716 1.46792 84.80210 -0.37635 72.64200 13.36770 32.09420 100.55000 20.94390 12.28910 8.34135 26.60550 -18.71270 -19.40610 -19.75660 20.43360 62.41210 -13.96720 1.61927 1.11037 8.51875 0.92528 -42.42120 -32.52560 8.40805 18.66290 43.91970 22.95210 -46.29140 -37.93050 2.11295 3.25717 4.79499 -55.68140 -0.54319 
29.77580 88.67920 -3.22954 -0.59789 -12.76400 6.89664 6.86209 9.31836 -2.28011 -1.05097 20.84290 -1.52841 -7.30184 0.11893 17.60960 -0.00000 -0.00000 0.00000 -86.86880 -58.76130 -78.28790 -20.12500 37.53940 -83.56070 16.36750 7.62806 -12.27800 14.30310 0.70319 1.52427 84.60080 -0.66607 72.66650 13.89090 32.22060 100.23900 21.23770 12.30100 8.23082 26.33230 -17.56050 -16.79230 -20.01960 17.60840 61.32680 -11.04620 6.22184 1.28505 8.25821 -3.63802 -44.87640 -33.41310 8.71052 19.58510 43.91750 22.59430 -45.67040 -37.37900 4.85866 4.14514 3.88469 -53.47400 -2.29251 
31.19890 89.48830 -2.71076 0.02766 -12.72470 8.47985 5.83401 9.48833 -2.20597 -1.05268 20.91090 -1.34533 -7.27066 0.32593 16.72340 -0.00000 -0.00000 0.00000 -85.67160 -56.70980 -77.31190 -19.57890 36.14480 -83.10340 16.23750 7.63376 -12.37550 14.55120 0.71359 1.54169 84.37250 -1.00553 72.66530 14.46560 32.36610 99.85940 21.57450 12.30430 8.05490 25.81560 -15.84210 -13.96060 -20.05500 14.11120 59.91980 -7.64198 10.58870 1.13419 8.03327 -7.33936 -47.87180 -34.19620 8.87184 20.41580 43.91570 22.43710 -45.42270 -36.76280 7.91550 5.09737 3.25526 -50.35970 -3.38779 
32.65300 90.32090 -2.17970 0.63166 -12.72870 10.09990 4.86368 9.67266 -2.18067 -0.99870 21.00310 -1.24196 -7.16131 0.55993 15.86840 -0.00000 -0.00000 0.00000 -84.26590 -54.51140 -76.12640 -19.10840 34.49890 -82.72490 15.99930 7.66194 -12.42770 14.81940 0.73508 1.61864 84.12600 -1.43382 72.64620 14.96550 32.47490 99.47860 21.88300 12.30450 7.88415 24.99320 -13.92200 -11.47340 -20.01760 10.60040 58.66350 -4.25658 14.21580 0.70815 7.84653 -10.07110 -51.06030 -34.88250 8.87819 21.14190 43.99540 22.50310 -45.63570 -36.13650 11.08100 6.04712 2.95859 -45.85880 -3.44266 
34.12380 91.09210 -1.61611 1.21685 -12.79110 11.72650 4.01596 9.84420 -2.20500 -0.90918 21.09200 -1.22224 -6.95872 0.82444 15.06050 -0.00000 -0.00000 0.00000 -82.52710 -52.20760 -74.76520 -18.62250 32.55860 -82.51130 15.67300 7.70727 -12.45100 15.13280 0.77774 1.80474 83.86060 -1.92821 72.60760 15.31380 32.49390 99.17830 22.12900 12.30470 7.75161 23.94370 -12.09480 -9.69597 -20.09040 7.55182 57.82940 -1.28773 16.81090 0.15721 7.64866 -12.16670 -54.09410 -35.46300 8.75946 21.77330 44.16080 22.83620 -46.25380 -35.52720 14.09240 6.91374 2.79003 -39.63850 -2.59882 
35.56430 91.77420 -1.02190 1.77641 -12.89680 13.34250 3.28471 9.99198 -2.26406 -0.82206 21.16930 -1.25959 -6.64790 1.09461 14.28080 -0.00000 -0.00000 0.00000 -80.96310 -50.08650 -73.68410 -18.13400 30.86390 -82.45970 15.41200 7.74730 -12.44120 15.54550 0.83614 2.05310 83.60370 -2.44121 72.54070 15.51210 32.46950 99.00460 22.27350 12.30140 7.65777 22.83090 -10.46970 -8.60199 -20.32060 5.07267 57.37020 1.15271 18.49390 -0.38868 7.34740 -14.11820 -56.83020 -35.85980 8.55932 22.27770 44.35790 23.42440 -47.12050 -34.96250 16.63790 7.60926 2.53502 -32.32590 -1.23507 
36.93450 92.36480 -0.40616 2.25610 -12.99870 14.92110 2.69475 10.10300 -2.33582 -0.78404 21.23170 -1.32418 -6.23245 1.32008 13.51220 -0.00000 -0.00000 0.00000 -79.92630 -48.38050 -73.12970 -17.66660 29.84740 -82.54010 15.32110 7.76738 -12.39040 16.08200 0.89444 2.26633 83.37000 -2.90771 72.42730 15.57150 32.45000 98.97570 22.29150 12.29430 7.61296 21.78000 -9.11716 -7.97433 -20.61950 3.17399 57.15140 3.08773 19.56400 -0.86401 6.88081 -16.19820 -59.28020 -35.98540 8.30775 22.57920 44.54370 24.17410 -48.05860 -34.51390 18.39210 8.05934 2.22037 -25.92710 0.49092 
